<?xml version="1.0" encoding="UTF-8"?>
<svg width="30px" height="30px" viewBox="0 0 24 24" version="1.1" xmlns="http://www.w3.org/2000/svg" xmlns:xlink="http://www.w3.org/1999/xlink">
    <!-- Generator: Sketch 52.4 (67378) - http://www.bohemiancoding.com/sketch -->
    <title>instagram</title>
    <desc>Created with Sketch.</desc>
    <g id="Symbols" stroke="none" stroke-width="1" fill="none" fill-rule="evenodd">
        <g id="Footer---Default" transform="translate(-286.000000, -595.000000)" fill="#FFFFFF">
            <g id="Footer">
                <g id="Group-7" transform="translate(273.000000, 551.000000)">
                    <g id="instagram" transform="translate(13.000000, 44.000000)">
                        <path d="M20.484375,0 L3.515625,0 C1.57727053,0 0,1.57727053 0,3.515625 L0,20.484375 C0,22.4227295 1.57727053,24 3.515625,24 L20.484375,24 C22.4227295,24 24,22.4227295 24,20.484375 L24,3.515625 C24,1.57727053 22.4227295,0 20.484375,0 Z M12.046875,18.28125 C8.55743409,18.28125 5.71875,15.4425659 5.71875,11.953125 C5.71875,8.46368409 8.55743409,5.625 12.046875,5.625 C15.5363159,5.625 18.375,8.46368409 18.375,11.953125 C18.375,15.4425659 15.5363159,18.28125 12.046875,18.28125 Z M19.078125,7.03125 C17.9150391,7.03125 16.96875,6.08496094 16.96875,4.921875 C16.96875,3.75878906 17.9150391,2.8125 19.078125,2.8125 C20.2412109,2.8125 21.1875,3.75878906 21.1875,4.921875 C21.1875,6.08496094 20.2412109,7.03125 19.078125,7.03125 Z" id="Shape" fill-rule="nonzero"></path>
                        <path d="M19.5,4 C19.2240885,4 19,4.22408853 19,4.5 C19,4.77591147 19.2240885,5 19.5,5 C19.7759115,5 20,4.77591147 20,4.5 C20,4.22408853 19.7759115,4 19.5,4 Z" id="Path"></path>
                        <path d="M12,7 C9.24330357,7 7,9.24330357 7,12 C7,14.7566964 9.24330357,17 12,17 C14.7566964,17 17,14.7566964 17,12 C17,9.24330357 14.7566964,7 12,7 Z" id="Path"></path>
                    </g>
                </g>
            </g>
        </g>
    </g>
</svg>